<?xml version="1.0" standalone="no"?>
<!DOCTYPE svg PUBLIC "-//W3C//DTD SVG 20010904//EN"
 "http://www.w3.org/TR/2001/REC-SVG-20010904/DTD/svg10.dtd">
<svg version="1.0" xmlns="http://www.w3.org/2000/svg"
 width="700.000000pt" height="700.000000pt" viewBox="0 0 700.000000 700.000000"
 preserveAspectRatio="xMidYMid meet">
<metadata>
Created by potrace 1.11, written by Peter Selinger 2001-2013
</metadata>
<g transform="translate(0.000000,700.000000) scale(0.100000,-0.100000)"
fill="#000000" stroke="none">
<path d="M2829 6388 c-10 -32 -18 -146 -24 -328 -3 -85 -9 -157 -13 -161 -4
-3 -27 -17 -52 -30 -146 -77 -358 -235 -456 -340 -61 -66 -165 -197 -203 -256
-18 -29 -36 -53 -40 -53 -6 0 -41 56 -88 140 -85 150 -209 340 -223 340 -6 0
-10 -2 -10 -5 0 -16 57 -141 156 -340 l113 -230 -49 -115 c-42 -99 -90 -242
-104 -314 -20 -98 -26 -131 -32 -197 -10 -95 -10 -293 -1 -388 32 -320 175
-657 391 -921 137 -168 343 -338 527 -434 l55 -29 2 -256 c4 -689 25 -1686 37
-1748 2 -10 4 -34 4 -53 1 -34 15 -69 25 -60 11 12 23 177 31 455 8 259 23
1175 24 1499 1 99 2 108 19 101 61 -27 244 -76 340 -91 80 -14 113 -23 116
-34 3 -8 8 -244 11 -525 11 -871 23 -1274 41 -1367 6 -31 24 -38 25 -10 0 9 2
26 4 37 15 79 37 858 39 1407 1 131 2 238 3 238 1 0 18 -30 39 -68 21 -37 46
-83 57 -102 11 -19 34 -60 50 -90 98 -178 441 -782 565 -995 214 -369 292
-484 292 -435 0 35 -292 617 -600 1195 -39 74 -93 176 -180 340 -29 55 -60
114 -70 130 -38 66 -131 247 -128 250 2 1 62 5 133 8 299 14 605 115 864 285
91 60 94 62 205 158 268 231 491 615 550 949 3 17 8 41 11 55 13 57 16 103 22
260 6 188 -8 321 -51 486 -110 421 -365 781 -731 1028 -91 62 -306 166 -420
204 -159 52 -344 83 -518 87 -59 1 -109 4 -111 6 -2 2 -7 57 -10 123 -7 136
-15 196 -27 196 -15 0 -22 -68 -31 -282 -1 -41 -5 -48 -22 -49 -12 -1 -30 -3
-41 -4 -11 -2 -40 -6 -65 -9 -74 -10 -241 -53 -314 -80 -38 -14 -74 -26 -81
-26 -9 0 -13 26 -14 98 -1 85 -9 228 -16 287 -1 11 -3 30 -4 43 0 12 -5 22
-11 22 -5 0 -10 -1 -11 -2z m871 -412 c47 -3 96 -8 110 -11 104 -20 145 -30
220 -52 712 -212 1200 -867 1198 -1603 -1 -112 -5 -172 -23 -290 -3 -19 -17
-80 -31 -135 -118 -469 -455 -878 -897 -1090 -91 -43 -274 -109 -331 -119 -16
-3 -52 -10 -80 -15 -97 -20 -112 -21 -237 -28 l-127 -6 -1 934 c-1 1107 -10
1942 -25 2379 -1 29 3 36 23 40 29 6 87 5 201 -4z m-297 -44 c-13 -274 -26
-1428 -27 -2369 0 -414 -1 -753 -2 -753 -2 0 -31 53 -139 255 -21 39 -72 133
-115 210 -42 77 -109 199 -147 270 l-71 130 -6 855 c-4 470 -9 959 -12 1086
-5 218 -4 232 13 237 10 3 63 21 118 40 92 33 181 54 310 75 85 13 80 15 78
-36z m-609 -209 c-4 -113 -17 -1167 -18 -1500 -1 -172 -4 -309 -7 -305 -4 4
-21 34 -39 67 -18 33 -52 94 -75 135 -23 41 -56 100 -72 130 -131 236 -403
719 -463 820 -32 54 -32 54 -14 85 92 160 285 377 435 489 92 68 239 157 249
151 4 -2 6 -35 4 -72z m-704 -790 c25 -48 66 -126 91 -173 25 -47 78 -148 119
-225 64 -124 130 -246 260 -490 20 -38 77 -144 125 -234 l88 -163 2 -397 c0
-218 -1 -404 -3 -413 -3 -14 -18 -9 -86 33 -555 343 -859 944 -803 1590 4 47
10 96 12 110 3 13 7 35 10 49 3 14 7 36 10 50 3 14 8 36 11 50 15 72 101 300
113 300 3 0 26 -39 51 -87z m948 -1774 c71 -130 153 -281 182 -335 29 -54 64
-117 78 -138 l24 -39 -46 6 c-76 11 -216 48 -298 79 l-78 30 0 321 c0 176 2
318 5 316 2 -3 62 -111 133 -240z"/>
</g>
</svg>
