<?xml version="1.0" encoding="utf-8"?>
<!-- Generator: Adobe Illustrator 24.2.3, SVG Export Plug-In . SVG Version: 6.00 Build 0)  -->
<svg version="1.1" id="Layer_1" xmlns="http://www.w3.org/2000/svg" xmlns:xlink="http://www.w3.org/1999/xlink"
x="0px" y="0px" width="500px" height="500px" viewBox="0 0 500 500" enable-background="new 0 0 500 500" xml:space="preserve">
<style type="text/css">
	.st0{fill:#DD0031;}
	.st1{fill:#C3002F;}
	.st2{fill:#FFFFFF;}
</style>
<g>
	<polygon class="st0" points="250,55 250,55 250,55 63.8,121.4 92.2,367.6 250,455 250,455 250,455 407.8,367.6 436.2,121.4 	"/>
	<polygon class="st1" points="250,55 250,99.4 250,99.2 250,301.8 250,301.8 250,455 250,455 407.8,367.6 436.2,121.4 	"/>
	<path class="st2" d="M250,99.2l-116.4,261l0,0H177l0,0l23.4-58.4h98.8l23.4,58.4l0,0H366l0,0L250,99.2L250,99.2L250,99.2L250,99.2
		L250,99.2z M284,265.8h-68l34-81.8L284,265.8z"/>
</g>
</svg>
