<?xml version="1.0" encoding="utf-8"?>
<!-- Generator: Adobe Illustrator 24.2.3, SVG Export Plug-In . SVG Version: 6.00 Build 0)  -->
<svg version="1.1" id="Livello_1" xmlns="http://www.w3.org/2000/svg" xmlns:xlink="http://www.w3.org/1999/xlink"
x="0px" y="0px" width="500px" height="500px" viewBox="0 0 500 500" enable-background="new 0 0 500 500" xml:space="preserve">
<style type="text/css">
	.st0{fill:#185C37;}
	.st1{fill:#21A366;}
	.st2{fill:#107C41;}
	.st3{opacity:0.1;enable-background:new    ;}
	.st4{opacity:0.2;enable-background:new    ;}
	.st5{fill:url(#SVGID_1_);}
	.st6{fill:#FFFFFF;}
	.st7{fill:#33C481;}
</style>
<path class="st0" d="M304.9,240l-169.7-30v221.3c0,10.1,8.2,18.3,18.3,18.3l0,0h292.9c10.1,0,18.3-8.2,18.3-18.3l0,0v-81.5
	L304.9,240z"/>
<path class="st1" d="M304.9,50.3H153.5c-10.1,0-18.3,8.2-18.3,18.3l0,0v81.5L304.9,250l89.9,30l69.9-30v-99.8L304.9,50.3z"/>
<path class="st2" d="M135.2,150.2h169.7V250H135.2V150.2z"/>
<path class="st3" d="M256.7,130.2H135.2v249.6h121.5c10.1,0,18.3-8.2,18.3-18.3v-213C274.9,138.4,266.8,130.2,256.7,130.2z"/>
<path class="st4" d="M246.7,140.2H135.2v249.6h111.5c10.1,0,18.3-8.2,18.3-18.3v-213C264.9,148.4,256.8,140.2,246.7,140.2z"/>
<path class="st4" d="M246.7,140.2H135.2v229.6h111.5c10.1,0,18.3-8.2,18.3-18.3v-193C264.9,148.4,256.8,140.2,246.7,140.2z"/>
<path class="st4" d="M236.7,140.2H135.2v229.6h101.5c10.1,0,18.3-8.2,18.3-18.3v-193C255,148.4,246.8,140.2,236.7,140.2z"/>
<linearGradient id="SVGID_1_" gradientUnits="userSpaceOnUse" x1="73.4946" y1="-926.1284" x2="216.8333" y2="-677.8717" gradientTransform="matrix(1 0 0 1 0 1052)">
	<stop  offset="0" style="stop-color:#18884F"/>
	<stop  offset="0.5" style="stop-color:#117E43"/>
	<stop  offset="1" style="stop-color:#0B6631"/>
</linearGradient>
<path class="st5" d="M53.6,140.2h183.1c10.1,0,18.3,8.2,18.3,18.3v183.1c0,10.1-8.2,18.3-18.3,18.3H53.6c-10.1,0-18.3-8.2-18.3-18.3
	V158.5C35.3,148.4,43.5,140.2,53.6,140.2z"/>
<path class="st6" d="M92,309.5l38.5-59.7l-35.3-59.3h28.4l19.2,37.9c1.8,3.6,3,6.3,3.7,8h0.2c1.3-2.9,2.6-5.7,4-8.4l20.6-37.6h26
	l-36.2,59l37.1,60h-27.7l-22.2-41.6c-1-1.8-1.9-3.6-2.7-5.6h-0.3c-0.7,1.9-1.5,3.7-2.6,5.4l-22.9,41.8H92L92,309.5z"/>
<path class="st7" d="M446.4,50.3H304.9v99.8h159.8V68.6C464.7,58.5,456.5,50.3,446.4,50.3L446.4,50.3z"/>
<path class="st2" d="M304.9,250h159.8v99.8H304.9V250z"/>
</svg>
