<?xml version="1.0" encoding="utf-8"?>
<!-- Generator: Adobe Illustrator 24.2.3, SVG Export Plug-In . SVG Version: 6.00 Build 0)  -->
<svg version="1.1" id="Layer_1" xmlns="http://www.w3.org/2000/svg" xmlns:xlink="http://www.w3.org/1999/xlink" x="0px" y="0px"
	 viewBox="0 0 500 500" width="500px" height="500px"  style="enable-background:new 0 0 500 500;" xml:space="preserve">
<style type="text/css">
	.st0{fill:#413000;}
	.st1{fill:#F05133;}
</style>
<path class="st0" d="M290.7,222.7c-9,0-15.7,4.4-15.7,15c0,8,4.4,13.5,15.2,13.5c9.1,0,15.3-5.4,15.3-13.9
	C305.5,227.8,300,222.7,290.7,222.7L290.7,222.7z M272.7,297.6c-2.1,2.6-4.2,5.4-4.2,8.6c0,6.5,8.3,8.5,19.7,8.5
	c9.5,0,22.4-0.7,22.4-9.5c0-5.2-6.2-5.6-14-6L272.7,297.6L272.7,297.6z M321,223.2c2.9,3.8,6,9,6,16.5c0,18.1-14.2,28.7-34.8,28.7
	c-5.2,0-10-0.7-12.9-1.5l-5.4,8.6l16,1c28.2,1.8,44.9,2.6,44.9,24.3c0,18.8-16.5,29.4-44.9,29.4c-29.5,0-40.8-7.5-40.8-20.4
	c0-7.3,3.3-11.3,9-16.6c-5.4-2.3-7.2-6.4-7.2-10.8c0-3.6,1.8-6.9,4.7-10c2.9-3.1,6.2-6.2,10.1-9.8c-8-3.9-14-12.4-14-24.5
	c0-18.8,12.4-31.7,37.4-31.7c7,0,11.3,0.6,15,1.6H336v13.9L321,223.2"/>
<path class="st0" d="M364.7,193.5c-9.3,0-14.7-5.4-14.7-14.7c0-9.3,5.4-14.4,14.7-14.4c9.5,0,14.8,5.1,14.8,14.4
	C379.6,188.2,374.2,193.5,364.7,193.5z M343.7,291.6v-12.9l8.3-1.1c2.3-0.3,2.6-0.8,2.6-3.3v-48c0-1.8-0.5-2.9-2.1-3.4l-8.8-3.1
	l1.8-13.2h33.8v67.7c0,2.6,0.2,2.9,2.6,3.3l8.3,1.1v12.9L343.7,291.6"/>
<path class="st0" d="M454.7,285.3c-7,3.4-17.3,6.5-26.6,6.5c-19.4,0-26.8-7.8-26.8-26.3v-42.7c0-1,0-1.6-1.3-1.6h-11.4v-14.5
	c14.4-1.6,20.1-8.8,21.9-26.6H426v23.2c0,1.1,0,1.6,1.3,1.6h23v16.3H426v39c0,9.6,2.3,13.4,11.1,13.4c4.6,0,9.3-1.1,13.2-2.6
	L454.7,285.3"/>
<path class="st1" d="M212.9,242.5l-74.6-74.6c-4.3-4.3-11.3-4.3-15.6,0l-15.5,15.5l19.7,19.7c4.6-1.5,9.8-0.5,13.4,3.1
	c3.7,3.7,4.7,8.9,3.1,13.5l18.9,18.9c4.6-1.6,9.9-0.6,13.5,3.1c5.1,5.1,5.1,13.4,0,18.5c-5.1,5.1-13.4,5.1-18.5,0
	c-3.8-3.8-4.8-9.5-2.8-14.2l-17.7-17.7l0,46.5c1.2,0.6,2.4,1.4,3.5,2.5c5.1,5.1,5.1,13.4,0,18.5c-5.1,5.1-13.4,5.1-18.5,0
	c-5.1-5.1-5.1-13.4,0-18.5c1.3-1.3,2.7-2.2,4.3-2.9v-46.9c-1.6-0.6-3-1.6-4.3-2.9c-3.9-3.9-4.8-9.6-2.8-14.3L99.7,191l-51.2,51.2
	c-4.3,4.3-4.3,11.3,0,15.6l74.6,74.6c4.3,4.3,11.3,4.3,15.6,0l74.3-74.3C217.2,253.7,217.2,246.8,212.9,242.5"/>
</svg>
