<?xml version="1.0" encoding="utf-8"?>
<!-- Generator: Adobe Illustrator 24.2.3, SVG Export Plug-In . SVG Version: 6.00 Build 0)  -->
<svg version="1.1"
	 id="Layer_1" inkscape:version="0.92.3 (2405546, 2018-03-11)" sodipodi:docname="Ionic-logo-landscape.svg" xmlns:cc="http://creativecommons.org/ns#" xmlns:dc="http://purl.org/dc/elements/1.1/" xmlns:inkscape="http://www.inkscape.org/namespaces/inkscape" xmlns:rdf="http://www.w3.org/1999/02/22-rdf-syntax-ns#" xmlns:sodipodi="http://sodipodi.sourceforge.net/DTD/sodipodi-0.dtd" xmlns:svg="http://www.w3.org/2000/svg"
	 xmlns="http://www.w3.org/2000/svg" xmlns:xlink="http://www.w3.org/1999/xlink" x="0px" y="0px" width="500px" height="500px" viewBox="0 0 500 500"
	 style="enable-background:new 0 0 500 500;" xml:space="preserve">
<style type="text/css">
	.st0{fill:#3880FF;}
</style>
<sodipodi:namedview  bordercolor="#666666" borderopacity="1" fit-margin-bottom="0" fit-margin-left="0" fit-margin-right="0" fit-margin-top="0" gridtolerance="10" guidetolerance="10" id="namedview32" inkscape:current-layer="Layer_1" inkscape:cx="179.8339" inkscape:cy="73.3" inkscape:pageopacity="0" inkscape:pageshadow="2" inkscape:window-height="744" inkscape:window-maximized="1" inkscape:window-width="1301" inkscape:window-x="65" inkscape:window-y="24" inkscape:zoom="0.4609375" objecttolerance="10" pagecolor="#ffffff" showgrid="false">
	</sodipodi:namedview>
<g id="g29" transform="translate(-38.2,-182.3)">
	<g id="g12">
		<path id="path4" inkscape:connector-curvature="0" class="st0" d="M144.1,399c-18.5,0-33.5,15-33.5,33.5s15,33.5,33.5,33.5
			s33.5-15,33.5-33.5C177.4,414,162.4,399,144.1,399z"/>
		<g id="g8">
			<circle id="circle6" class="st0" cx="192.1" cy="386.7" r="15.3"/>
		</g>
		<path id="path10" inkscape:connector-curvature="0" class="st0" d="M210.9,402l-0.6-1.4l-1,1.2c-2.5,2.8-5.7,5-9.2,6.3l-1,0.4
			l0.4,1c3.1,7.3,4.6,15.1,4.6,23c0,33.1-26.9,60.1-60.1,60.1s-60-27-60-60.1s26.9-60.1,60.1-60.1c9,0,17.6,2,25.7,5.8l0.9,0.4
			l0.4-1c1.5-3.5,3.8-6.5,6.8-8.9l1.2-1l-1.4-0.7c-10.5-5.4-21.8-8.2-33.7-8.2c-40.5,0-73.5,33-73.5,73.5s33,73.5,73.5,73.5
			s73.5-33,73.5-73.5C217.4,421.9,215.3,411.7,210.9,402L210.9,402z"/>
	</g>
	<g id="g27">
		<g id="g16">
			<rect id="rect14" x="255.4" y="400.5" class="st0" width="15.5" height="64"/>
		</g>
		<g id="g20">
			<rect id="rect18" x="422.6" y="400.5" class="st0" width="15.5" height="64"/>
		</g>
		<path id="path22" inkscape:connector-curvature="0" class="st0" d="M386.9,399c-10.9,0-19.3,6.6-21.2,8.4l0,0l-1-6.9h-12.9v64
			h15.5l0,0v-38.7c0-7.6,10.3-13.8,17.9-13.8c7.4,0,13.2,7.2,13.2,15.8v36.7h15.5v-35.2C413.8,412.5,406.5,399,386.9,399z"/>
		<path id="path24" inkscape:connector-curvature="0" class="st0" d="M478.8,452.9c-11.7,0-19.4-9.1-19.4-20.4
			c0-11.3,7.7-20.4,19.4-20.4c9.9,0,16,9.6,16,9.6l11.2-7.5c-3.2-5-7-8-12.1-11.1c-3.8-2.3-8.9-4.2-14.6-4.2
			c-19.4,0-34.2,14.6-34.3,33.5c0.1,18.9,14.9,33.5,34.3,33.5c5.7,0,10.8-1.9,14.6-4.2c5.1-3.1,8.9-6.1,12.1-11.1l-11.2-7.5
			C494.8,443.2,488.8,452.9,478.8,452.9z"/>
		<path id="path3000_1_" inkscape:connector-curvature="0" class="st0" d="M311.3,399c-19.5,0-33.5,15.3-33.5,33.2
			c0,18.2,13.6,33.8,33.8,33.8c18.3,0,33.2-14,33.2-33.4C344.8,410.4,327.4,399,311.3,399z M311.5,412.2c9.6,0,18.7,7.8,18.7,20.4
			c0,12.3-9.1,20.3-18.8,20.3c-10.6,0-19-8.6-19-20.4C292.4,420.8,300.7,412.2,311.5,412.2L311.5,412.2z"/>
	</g>
</g>
</svg>
