<?xml version="1.0" encoding="utf-8"?>
<!-- Generator: Adobe Illustrator 24.2.3, SVG Export Plug-In . SVG Version: 6.00 Build 0)  -->
<svg version="1.1" id="Layer_1" xmlns="http://www.w3.org/2000/svg" xmlns:xlink="http://www.w3.org/1999/xlink" x="0px" y="0px" width="500px" height="500px" viewBox="0 0 500 500" enable-background="new 0 0 500 500" xml:space="preserve">
<style type="text/css">
	.st0{fill:#F7DF1E;}
</style>
<rect class="st0" width="500" height="500"/>
<path d="M335.9,390.6c10.1,16.4,23.2,28.5,46.3,28.5c19.5,0,31.9-9.7,31.9-23.2c0-16.1-12.8-21.8-34.2-31.2l-11.7-5
	c-33.9-14.4-56.4-32.5-56.4-70.8c0-35.2,26.8-62.1,68.8-62.1c29.9,0,51.3,10.4,66.8,37.6L410.8,288c-8.1-14.4-16.7-20.1-30.2-20.1
	c-13.8,0-22.5,8.7-22.5,20.1c0,14.1,8.7,19.8,28.9,28.5l11.7,5c39.9,17.1,62.5,34.6,62.5,73.8c0,42.3-33.2,65.5-77.9,65.5
	c-43.6,0-71.8-20.8-85.6-48L335.9,390.6z M169.9,394.7c7.4,13.1,14.1,24.2,30.2,24.2c15.4,0,25.2-6,25.2-29.5V229.6h47V390
	c0,48.7-28.5,70.8-70.2,70.8c-37.6,0-59.4-19.5-70.5-42.9L169.9,394.7z"/>
</svg>
