<?xml version="1.0" encoding="utf-8"?>
<!-- Generator: Adobe Illustrator 24.2.3, SVG Export Plug-In . SVG Version: 6.00 Build 0)  -->
<svg version="1.1"
	 id="Layer_1" xmlns:cc="http://creativecommons.org/ns#" xmlns:dc="http://purl.org/dc/elements/1.1/" xmlns:rdf="http://www.w3.org/1999/02/22-rdf-syntax-ns#"
	 xmlns="http://www.w3.org/2000/svg" xmlns:xlink="http://www.w3.org/1999/xlink" x="0px" y="0px" width="500px" height="500px" viewBox="0 0 500 500"
	 style="enable-background:new 0 0 500 500;" xml:space="preserve">
<g transform="translate(-3.3359375,285.2793)">
	<path d="M249-112c0,1-1,1-1,1h-1c-1,0-1-1-2-2c0,0-1-1-1-2s0-1,1-1l2,1C248-114,249-113,249-112 M231-122c0-5-2-8-5-8c0,0,0,1-1,1
		v2h3c0,2,1,3,1,5H231 M266-127c2,0,3,2,4,5h2c-1-1-1-2-1-3s0-2-1-3s-2-2-3-2c0,0-1,1-2,1C265-128,266-128,266-127 M236-111
		c-1,0-1,0-1-1s0-2,1-3c2,0,3-1,3-1c1,0,1,1,1,1c0,1-1,2-3,4H236 M225-112c-4-2-5-5-5-10c0-3,0-5,2-7c1-2,3-3,5-3s3,1,5,3
		c1,3,2,6,2,9v1v1h1v-1c1,0,1-2,1-6c0-3,0-6-2-9s-4-5-8-5c-3,0-6,2-7,5c-2,4-2.4,7-2.4,12c0,4,1.4,8,5.4,12C223-111,224-111,225-112
		 M350,29c1,0,1-0.4,1-1.3c0-2.2-1-4.8-4-7.7c-3-3-8-4.9-14-5.7c-1-0.1-2-0.1-2-0.1c-1-0.2-1-0.2-2-0.2c-1-0.1-3-0.3-4-0.5
		c3-9.3,4-17.5,4-24.7c0-10-2-17-6-23s-8-9-13-10c-1,1-1,1-1,2c5,2,10,6,13,12c3,7,4,13,4,20c0,5.6-1,13.9-5,24.5
		c-4,1.6-8,5.3-11,11.1c0,0.9,0,1.4,1,1.4c0,0,1-0.9,2-2.6c2-1.7,3-3.4,5-5.1c3-1.7,5-2.6,8-2.6c5,0,10,0.7,13,2.1
		c4,1.3,6,2.7,7,4.3c1,1.5,2,2.9,3,4.2C349,28.4,350,29,350,29 M258-116c-1-1-1-3-1-5c0-4,0-6,2-9c2-2,4-3,6-3c3,0,5,2,7,4
		c1,3,2,5,2,8c0,5-2,8-6,9c0,0,1,1,2,1c2,0,3,1,5,2c1-6,2-10,2-15c0-6-1-10-3-13c-3-3-6-4-10-4c-3,0-6,1-9,3c-2,3-3,5-3,8
		c0,5,1,9,3,13C256-117,257-116,258-116 M270-100c-13,9-23,13-31,13c-7,0-14-3-20-8c1,2,2,4,3,5l6,6c4,4,9,6,14,6c7,0,15-4,25-11
		l9-6c2-2,4-4,4-7c0-1,0-2-1-2c-1-2-6-5-16-8c-9-4-16-6-20-6c-3,0-8,2-15,6c-6,4-10,8-10,12c0,0,1,1,2,3c6,5,12,8,18,8
		c8,0,18-4,31-14v2C270-101,270-100,270-100 M293,102c4,7.5,11,11.3,19,11.3c2,0,4-0.3,6-0.9c2-0.4,4-1.1,5-1.9c1-0.7,2-1.4,3-2.2
		c2-0.7,2-1.2,3-1.7l17-14.7c4-3.2,8-6,13-8.4c4-2.4,8-4,10-4.9c3-0.8,5-2,7-3.6c1-1.5,2-3.4,2-5.8c0-2.9-2-5.1-4-6.7s-4-2.7-6-3.4
		s-4-2.3-7-5c-2-2.6-4-6.2-5-10.9l-1-5.8c-1-2.7-1-4.7-2-5.8c0-0.3,0-0.4-1-0.4s-3,0.9-4,2.6c-2,1.7-4,3.6-6,5.6c-1,2-4,3.8-6,5.5
		c-3,1.7-6,2.6-8,2.6c-8,0-12-2.2-15-6.5c-2-3.2-3-6.9-4-11.1c-2-1.7-3-2.6-5-2.6c-5,0-7,5.2-7,15.7v3.3v11.6v8.9v4.3v3
		c0,0.9-1,2.9-1,6c-1,3.1-1,6.6-1,10.6l-2,11.1V102 M148,96.7c9.3,1.4,20,4.3,32.1,8.7c12.1,4.4,19.5,6.7,22.2,6.7
		c7,0,12.8-3.1,17.6-9.1c1-1.9,1-4.2,1-6.8c0-9.4-5.7-21.4-17.1-35.9l-6.8-9.1c-1.4-1.9-3.1-4.8-5.3-8.7c-2.1-3.9-4-6.9-5.5-9
		c-1.3-2.3-3.4-4.6-6.1-6.9c-2.6-2.3-5.6-3.8-8.9-4.6c-4.2,0.8-7.1,2.2-8.5,4.1c-1.4,1.9-2.2,4-2.4,6.2c-0.3,2.1-0.9,3.5-1.9,4.2
		c-1,0.6-2.7,1.1-5,1.6c-0.5,0-1.4,0-2.7,0.1H148c-5.3,0-8.9,0.6-10.8,1.6c-2.5,2.9-3.8,6.2-3.8,9.7c0,1.6,0.4,4.3,1.2,8.1
		c0.8,3.7,1.2,6.7,1.2,8.8c0,4.1-1.2,8.2-3.7,12.3c-2.5,4.3-3.8,7.5-3.8,9.8C129.3,92.3,135.9,95,148,96.7 M181.3,5.7
		c0-6.9,1.8-14.5,5.5-23.5c3.6-9,7.2-15,10.7-19c-0.2-1-0.7-1-1.5-1l-1-1c-2.9,3-6.4,10-10.6,20c-4.2,9-6.4,17.3-6.4,23.4
		c0,4.5,1.1,8.4,3.1,11.8c2.2,3.3,7.5,8.1,15.9,14.2l10.6,6.9c11.3,9.8,17.3,16.6,17.3,20.6c0,2.1-1,4.2-4,6.5c-2,2.4-4.7,3.6-7,3.6
		c-0.2,0-0.3,0.2-0.3,0.7c0,0.1,1,2.1,3.1,6c4.2,5.7,13.2,8.5,25.2,8.5c22,0,39-9,52-27c0-5,0-8.1-1-9.4v-3.7c0-6.5,1-11.4,3-14.6
		s4-4.7,7-4.7c2,0,4,0.7,6,2.2c1-7.7,1-14.4,1-20.4c0-9.1,0-16.6-2-23.6c-1-6-3-11-5-15c-2-3-4-6-6-9s-3-6-5-9c-1-4-2-7-2-12
		c-3-5-5-10-8-15c-2-5-4-10-6-14l-9,7c-10,7-18,10-25,10c-6,0-11-1-14-5l-6-5c0,3-1,7-3,11l-6.3,12c-2.8,7-4.3,11-4.6,14
		c-0.4,2-0.7,4-0.9,4l-7.5,15c-8.1,15-12.2,28.9-12.2,40.4c0,2.3,0.2,4.7,0.6,7.1C183.5,15.7,181.3,11.3,181.3,5.7 M252.9,100.3
		c-13,0-23,1.8-30,5.3v-0.3c-5,6-10.6,9.1-18.4,9.1c-4.9,0-12.6-1.9-23-5.7c-10.5-3.6-19.8-6.4-27.9-8.2c-0.8-0.2-2.6-0.6-5.5-1
		c-2.8-0.4-5.4-0.9-7.7-1.4c-2.1-0.4-4.5-1.1-7.1-2c-2.5-0.8-4.5-1.8-6-3.1c-1.4-1.3-2.1-2.7-2.1-4.3c0-1.6,0.3-3.3,1-5.1
		c0.6-1.1,1.3-2.2,2-3.2c0.7-1.1,1.3-2.1,1.7-3.1c0.6-0.9,1-1.8,1.4-2.8c0.4-0.9,0.8-1.8,1-2.9c0.2-1,0.4-2,0.4-3s-0.4-4-1.2-9.3
		c-0.8-5.2-1.2-8.5-1.2-9.9c0-4.4,1-7.9,3.2-10.4s4.3-3.8,6.5-3.8h11.5c0.9,0,2.3-0.5,4.4-1.7c0.7-1.6,1.3-2.9,1.7-4.1
		c0.5-1.2,0.7-2.1,0.9-2.5c0.2-0.6,0.4-1.2,0.6-1.7c0.4-0.7,0.9-1.5,1.6-2.3c-0.8-1-1.2-2.3-1.2-3.9c0-1.1,0-2.1,0.2-2.7
		c0-3.6,1.7-8.7,5.3-15.4l3.5-6.3c2.9-5.4,5.1-9.4,6.7-13.4c1.7-4,3.5-10,5.5-18c1.6-7,5.4-14,11.4-21l7.5-9c5.2-6,8.6-11,10.5-15
		c1.9-4,2.9-9,2.9-13c0-2-0.5-8-1.6-18c-1-10-1.5-20-1.5-29c0-7,0.6-12,1.9-17c1.3-5,3.6-10,7-14c3-4,7-8,13-10s13-3,21-3
		c3,0,6,0,9,1c3,0,7,1,12,3c4,2,8,4,11,7c4,3,7,8,10,13c2,6,4,12,5,20c1,5,1,10,2,17c0,6,1,10,1,13c1,3,1,7,2,12c1,4,2,8,4,11
		c2,4,4,8,7,12c3,5,7,10,11,16c9,10,16,21,20,32c5,10,8,23,8,36.9c0,6.9-1,13.6-3,20.1c2,0,3,0.8,4,2.2s2,4.4,3,9.1l1,7.4
		c1,2.2,2,4.3,5,6.1c2,1.8,4,3.3,7,4.5c2,1,5,2.4,7,4.2c2,2,3,4.1,3,6.3c0,3.4-1,5.9-3,7.7c-2,2-4,3.4-7,4.3c-2,1-6,3-12,5.8
		c-5,3-10,6.6-15,10.8l-10,8.5c-4,3.9-8,6.7-11,8.4c-3,1.8-7,2.7-11,2.7l-7-0.8c-8-2.1-13-6.1-16-12.2
		C273.9,101.3,260.9,100.3,252.9,100.3"/>
</g>
</svg>
