<?xml version="1.0" encoding="utf-8"?>
<!-- Generator: Adobe Illustrator 24.2.3, SVG Export Plug-In . SVG Version: 6.00 Build 0)  -->
<svg version="1.1"
	 id="Layer_1" xmlns:cc="http://creativecommons.org/ns#" xmlns:dc="http://purl.org/dc/elements/1.1/" xmlns:rdf="http://www.w3.org/1999/02/22-rdf-syntax-ns#" xmlns:svg="http://www.w3.org/2000/svg"
	 xmlns="http://www.w3.org/2000/svg" xmlns:xlink="http://www.w3.org/1999/xlink" x="0px" y="0px" width="500px" height="500px" viewBox="0 0 500 500" enable-background="new 0 0 500 500" xml:space="preserve">
<style type="text/css">
	.st0{fill:#6CB33F;}
	.st1{fill:#FFFFFF;}
</style>
<g id="g10" transform="matrix(1.25,0,0,-1.25,0,90)">
	<path id="path12" class="st0" d="M0-328h400V72H0C0,72,0-328,0-328z"/>
	<g id="g14" transform="translate(45.0039,48.4941)">
		<path id="path16" class="st1" d="M219.3-87.2l-13.2-75.3L193-237.8l-13.2-75.3h50.5l13.2,75.3l13.2,75.3l13.2,75.3H219.3z"/>
	</g>
	<g id="g18" transform="translate(32.3262,37.957)">
		<path id="path20" class="st1" d="M141.4-152l-13.2-75.3l-13.2-75.3h50.5l13.2,75.3l13.2,75.3H141.4z"/>
	</g>
	<g id="g22" transform="translate(17.8027,16.8779)">
		<path id="path24" class="st1" d="M52.1-281.5h50.5l13.2,75.3H65.3L52.1-281.5z"/>
	</g>
</g>
</svg>
