<?xml version="1.0" encoding="utf-8"?>
<!-- Generator: Adobe Illustrator 24.2.3, SVG Export Plug-In . SVG Version: 6.00 Build 0)  -->
<svg version="1.1" id="Layer_1" xmlns="http://www.w3.org/2000/svg" xmlns:xlink="http://www.w3.org/1999/xlink"
 x="0px" y="0px" width="500px" height="500px" viewBox="0 0 500 500" enable-background="new 0 0 500 500" xml:space="preserve">
<style type="text/css">
	.st0{fill:#10AA50;}
	.st1{fill:#B8C4C2;}
	.st2{fill:#12924F;}
	.st3{fill:#21313C;}
</style>
<g>
	<path class="st0" d="M105.3,239.8c-5.3-23.2-16.2-29.3-19-33.7c-1.2-1.9-2.2-3.9-3.1-6c-0.1,2.1-0.4,3.4-2.2,4.9
		c-3.5,3.1-18.4,15.3-19.7,41.6c-1.2,24.5,18,39.7,20.6,41.2c2,1,4.3,0,5.5-0.9C96.7,280.7,109.4,263.8,105.3,239.8"/>
	<path class="st1" d="M84.1,274.9c-0.5,6.1-0.8,9.6-2.1,13.1c0,0,0.8,5.8,1.4,11.9h2c0.5-4.3,1.2-8.6,2.2-12.8
		C85,285.7,84.2,280.2,84.1,274.9z"/>
	<path class="st2" d="M87.6,287L87.6,287c-2.6-1.2-3.4-6.9-3.5-12.2c0.6-8.7,0.8-17.5,0.6-26.2c-0.1-4.6,0.1-42.4-1.1-48
		c0.8,1.9,1.8,3.7,2.8,5.5c2.8,4.4,13.7,10.5,19,33.7C109.4,263.7,96.8,280.6,87.6,287z"/>
	<path class="st3" d="M433,278.6c-3.1,0-5.7-2.5-5.7-5.7c0-3.1,2.5-5.7,5.7-5.7c3.1,0,5.6,2.5,5.7,5.6c0.1,3.1-2.4,5.7-5.5,5.8
		C433.1,278.6,433,278.6,433,278.6 M433,267.8c-2.9,0-5.2,2.3-5.2,5.1c0,2.9,2.3,5.2,5.1,5.2c2.9,0,5.2-2.3,5.2-5.1c0,0,0,0,0,0
		c0.1-2.8-2.2-5.1-5-5.2C433.1,267.8,433,267.8,433,267.8 M434.3,276.5l-1.5-3.2h-1.2v3.2h-0.9v-7.2h2.1c1.6,0,2.2,0.7,2.2,2
		c0,1.1-0.5,1.7-1.4,1.9l1.5,3.3L434.3,276.5z M431.7,272.6h1.2c1,0,1.4-0.3,1.4-1.3c0-0.9-0.4-1.2-1.5-1.2h-1.1V272.6z"/>
	<path class="st3" d="M348.3,273.5c1.5,1.2,4.6,1.7,7.3,1.7c3.5,0,7-0.7,10.3-3.7c3.4-3.1,5.8-7.9,5.8-15.5c0-7.3-2.8-13.3-8.5-16.7
		c-3.2-2-7.4-2.8-12.2-2.8c-1.4,0-2.8,0.1-3.6,0.4c-0.3,0.3-0.6,0.6-0.7,1c-0.1,1.3-0.1,11.2-0.1,17.1c0,6,0,14.4,0.1,15.4
		C346.9,271.3,347.3,272.8,348.3,273.5 M333.6,233.2c1.2,0,6,0.2,8.2,0.2c4.1,0,7-0.2,14.7-0.2c6.4,0,11.9,1.7,15.8,5.1
		c4.7,4.1,7.2,9.7,7.2,16.6c0,9.8-4.5,15.4-8.9,18.6c-4.5,3.3-10.3,5.2-18.5,5.2c-4.4,0-11.9-0.1-18.2-0.2h-0.1
		c-0.3-0.6,0.5-2.8,1.1-2.9c1.7-0.2,2.2-0.3,3-0.6c1.3-0.5,1.6-1.2,1.8-3.6c0.2-4.5,0.1-9.9,0.1-15.9c0-4.3,0.1-12.8-0.1-15.5
		c-0.2-2.2-1.2-2.8-3.1-3.3c-1.4-0.3-2.7-0.5-4.1-0.7C332.1,235.6,333.2,233.6,333.6,233.2"/>
	<path class="st3" d="M397.6,236.8c-0.3,0.1-0.7,0.8-0.7,1.2c-0.1,2.6-0.1,9.4-0.1,14.1c0,0.2,0.2,0.3,0.4,0.4
		c1,0.1,3.3,0.1,5.3,0.1c2.8,0,4.4-0.4,5.3-0.8c2.3-1.2,3.4-3.7,3.4-6.4c0-6.3-4.4-8.7-10.9-8.7
		C399.3,236.7,398.5,236.7,397.6,236.8 M414.2,265.8c0-6.4-4.7-10-13.3-10c-0.4,0-3.1-0.1-3.7,0.1c-0.2,0.1-0.4,0.2-0.4,0.4
		c0,4.6-0.1,11.9,0.1,14.8c0.1,1.2,1,3,2.1,3.5c1.2,0.7,3.8,0.8,5.6,0.8C409.7,275.3,414.2,272.5,414.2,265.8 M384.4,233.3
		c0.7,0,2.6,0.2,7.6,0.2c4.7,0,8.5-0.1,13-0.1c5.6,0,13.4,2,13.4,10.4c0,4.1-2.9,7.5-6.7,9.1c-0.2,0.1-0.2,0.2,0,0.3
		c5.4,1.4,10.2,4.7,10.2,11.1c0,6.2-3.9,10.1-9.5,12.6c-3.4,1.5-7.7,2-12,2c-3.3,0-12.1-0.3-17-0.3c-0.5-0.2,0.5-2.5,0.9-2.9
		c1.1,0,2.2-0.2,3.3-0.5c1.8-0.4,2-1,2.2-3.6c0.1-2.2,0.1-10.3,0.1-16c0-7.8,0.1-13.1,0-15.7c-0.1-2-0.8-2.7-2.2-3
		c-1.1-0.2-2.9-0.4-4.4-0.7C382.9,235.8,384,233.6,384.4,233.3"/>
	<path class="st3" d="M121.5,278.6c-0.2-0.5-0.3-1-0.2-1.5c0-0.3,0.1-0.7,0.2-1c0.9-0.1,1.9-0.3,2.8-0.6c1.3-0.3,1.8-1,1.9-2.7
		c0.2-3.9,0.2-11.2,0.2-16.4v-0.2c0-0.6,0-1.3-0.7-1.8c-1.2-0.8-2.5-1.3-3.9-1.7c-0.6-0.2-1-0.5-0.9-0.9c0-0.4,0.4-0.8,1.2-1
		c2.1-0.2,7.7-1.5,9.9-2.6c0.2,0.3,0.3,0.7,0.3,1c0,0.2,0,0.5-0.1,0.7c-0.1,0.7-0.1,1.6-0.1,2.4c0,0.3,0.3,0.5,0.6,0.5
		c0.1,0,0.2-0.1,0.3-0.2c4.2-3.3,7.9-4.4,9.8-4.4c3.1,0,5.6,1.5,7.5,4.6c0.1,0.2,0.2,0.2,0.4,0.3c0.2,0,0.3-0.1,0.4-0.2
		c3.8-2.9,7.6-4.6,10.2-4.6c6,0,9.6,4.5,9.6,12c0,2.2,0,4.9,0,7.5c0,2.2,0,4.3,0,5.8c0,0.3,0.5,1.3,1.2,1.5c0.9,0.4,2.1,0.6,3.7,0.9
		h0.1c0.1,0.4-0.1,2.1-0.4,2.5c-0.4,0-0.9,0-1.6-0.1c-1.2-0.1-3-0.1-4.9-0.1c-4,0-6.1,0.1-8.1,0.2c-0.2-0.5-0.2-2.1,0-2.4
		c0.8-0.1,1.6-0.3,2.4-0.5c1.3-0.4,1.6-1,1.7-2.7c0-1.2,0.3-11.7-0.1-14.2c-0.4-2.6-2.3-5.6-6.6-5.6c-1.6,0-4.2,0.7-6.6,2.5
		c-0.2,0.2-0.2,0.4-0.2,0.6v0.1c0.3,1.4,0.3,2.9,0.3,5.3c0,1.4,0,2.8,0,4.2c0,2.9,0,5.7,0,7.7c0,1.4,0.9,1.8,1.5,2
		c0.4,0.1,0.7,0.2,1,0.2c0.6,0.1,1.2,0.3,2.1,0.4c0.1,0.6,0.1,1.2,0,1.8c0,0.2-0.1,0.4-0.3,0.6c-2.2-0.1-4.5-0.1-7.8-0.1
		c-1,0-2.6,0-4.1,0.1c-1.2,0-2.3,0.1-2.9,0.1c-0.2-0.4-0.2-0.8-0.2-1.3c0-0.4,0-0.8,0.2-1.2l0.9-0.2c0.8-0.1,1.4-0.3,2.1-0.4
		c1.1-0.3,1.5-0.9,1.6-2.3c0.2-3.2,0.4-12.5-0.1-14.8c-0.8-3.7-2.9-5.6-6.3-5.6c-2,0-4.5,1-6.6,2.5c-0.4,0.4-0.6,0.9-0.6,1.5
		c0,1.1,0,2.4,0,3.8c0,4.7,0,10.5,0.1,13c0.1,0.8,0.3,1.7,1.8,2c0.3,0.1,0.9,0.2,1.5,0.3c0.4,0.1,0.8,0.1,1.2,0.2
		c0.1,0.8,0.1,1.7-0.2,2.5c-0.6,0-1.4,0-2.3-0.1c-1.4-0.1-3.1-0.1-5-0.1c-2.3,0-3.9,0.1-5.2,0.1C123,278.6,122.3,278.6,121.5,278.6"
		/>
	<path class="st3" d="M195.1,251.5c-1.2,0-2.5,0.3-3.5,1c-2.5,1.5-3.8,4.6-3.8,9.2c0,8.5,4.3,14.4,10.4,14.4
		c1.6,0.1,3.2-0.5,4.5-1.6c1.9-1.5,2.9-4.6,2.9-9C205.4,257.2,201.3,251.5,195.1,251.5 M196.2,279.3c-11,0-14.9-8.1-14.9-15.6
		c0-5.3,2.2-9.4,6.4-12.3c3-1.8,6.4-2.9,9.9-2.9c8.4,0,14.3,6,14.3,14.7c0,5.9-2.3,10.5-6.8,13.4C203,277.9,199.3,279.3,196.2,279.3
		"/>
	<path class="st3" d="M307.2,251.5c-1.2,0-2.5,0.3-3.5,1c-2.5,1.5-3.8,4.6-3.8,9.2c0,8.5,4.3,14.4,10.4,14.4
		c1.6,0.1,3.2-0.5,4.5-1.6c1.9-1.5,2.9-4.6,2.9-9C317.5,257.2,313.4,251.5,307.2,251.5 M308.3,279.3c-11,0-14.9-8.1-14.9-15.6
		c0-5.3,2.2-9.4,6.4-12.3c3-1.8,6.4-2.9,9.9-2.9c8.4,0,14.3,6,14.3,14.7c0,5.9-2.3,10.5-6.8,13.4
		C315.1,277.9,311.4,279.3,308.3,279.3"/>
	<path class="st3" d="M270.1,251.3c-3.4,0-5.6,2.7-5.6,6.8c0,4.1,1.9,9.1,7.2,9.1c0.9,0,2.6-0.4,3.4-1.3c1.2-1.1,2.1-3.5,2.1-6
		C277.2,254.5,274.5,251.3,270.1,251.3 M269.7,279.9c-1,0-1.9,0.2-2.7,0.7c-2.7,1.7-3.9,3.4-3.9,5.4c0,1.9,0.7,3.4,2.3,4.7
		c1.9,1.6,4.4,2.4,7.8,2.4c6.6,0,9.5-3.5,9.5-7c0-2.4-1.2-4.1-3.7-5C276.9,280.3,273.7,279.9,269.7,279.9 M270.1,296.7
		c-4,0-6.8-0.8-9.2-2.7c-2.4-1.8-3.4-4.5-3.4-6.4c0-1.2,0.5-2.4,1.3-3.3c0.7-0.8,2.3-2.2,6-4.8c0.1,0,0.2-0.2,0.2-0.3
		c0-0.1-0.1-0.3-0.2-0.3c-3-1.2-4-3.1-4.2-4.1c0,0,0-0.1,0-0.2c-0.1-0.4-0.2-0.8,0.4-1.2c0.4-0.3,1.1-0.7,1.8-1.1
		c1-0.6,2-1.2,2.9-1.9c0.2-0.2,0.2-0.5,0-0.7c0,0-0.1-0.1-0.1-0.1c-4.5-1.5-6.8-4.8-6.8-9.9c0-3.2,1.5-6.3,4.2-8.1
		c1.8-1.4,6.3-3.1,9.3-3.1h0.2c3,0.1,4.7,0.7,7.1,1.6c1.3,0.5,2.8,0.7,4.2,0.7c2.5,0,3.6-0.8,4.5-1.7c0.2,0.4,0.2,0.9,0.2,1.3
		c0.1,1.1-0.2,2.1-0.8,3c-0.5,0.7-1.7,1.2-2.8,1.2c-0.1,0-0.2,0-0.3,0c-0.6,0-1.2-0.1-1.7-0.3l-0.3,0.1c-0.1,0.1,0,0.3,0,0.5
		c0,0,0,0.1,0,0.1c0.2,0.9,0.3,1.8,0.4,2.8c0,5.3-2.1,7.7-4.4,9.4c-2.2,1.6-4.8,2.7-7.5,2.9l0,0c-0.1,0-0.3,0-0.9,0.1
		c-0.3,0-0.8,0.1-0.9,0.1h-0.1c-0.5,0.1-1.8,0.8-1.8,1.9c0,0.9,0.6,2.1,3.4,2.3l1.8,0.1c3.7,0.3,8.3,0.6,10.4,1.3
		c2.9,1,4.9,3.8,4.8,7c0,4.8-3.4,9.3-9.1,12C276,296,273.1,296.6,270.1,296.7"/>
	<path class="st3" d="M253.3,276.1c-1.6-0.2-2.8-0.4-4.2-1.1c-0.3-0.3-0.5-0.6-0.5-1c-0.1-2.2-0.1-8.8-0.1-13c0-3.5-0.6-6.5-2.1-8.7
		c-1.8-2.5-4.2-3.9-7.5-3.9c-2.9,0-6.7,2-9.8,4.6c-0.1,0.1-0.6,0.5-0.5-0.2c0-0.7,0.1-2.2,0.2-3.1c0.1-0.5-0.1-1-0.5-1.3
		c-2.1,1-7.8,2.4-10,2.6c-1.6,0.3-2,1.8-0.3,2.3h0c1.3,0.4,2.6,0.9,3.8,1.7c0.7,0.5,0.6,1.2,0.6,1.8c0.1,4.9,0.1,12.3-0.1,16.4
		c-0.1,1.6-0.5,2.2-1.7,2.5l0.1,0c-0.9,0.2-1.8,0.4-2.7,0.5c-0.4,0.4-0.4,2.5,0,2.9c0.7,0,4.5-0.2,7.5-0.2c4.2,0,6.4,0.2,7.5,0.2
		c0.4-0.5,0.6-2.5,0.3-2.9c-1,0-2-0.2-3-0.4c-1.2-0.3-1.5-0.9-1.5-2.2c-0.1-3.4-0.1-10.7-0.1-15.6c0-1.4,0.4-2,0.8-2.4
		c1.5-1.3,3.9-2.2,6-2.2c2.1,0,3.4,0.7,4.5,1.5c1.2,1,1.9,2.5,2.1,4.1c0.3,2.7,0.2,8.3,0.2,13c0,2.6-0.2,3.3-1.2,3.6
		c-0.4,0.2-1.6,0.4-3,0.6c-0.4,0.4-0.3,2.5,0,2.9c1.9,0,4.1-0.2,7.3-0.2c4,0,6.6,0.2,7.6,0.2C253.4,278.5,253.6,276.6,253.3,276.1"
		/>
</g>
</svg>
