<?xml version="1.0" encoding="utf-8"?>
<!-- Generator: Adobe Illustrator 24.2.3, SVG Export Plug-In . SVG Version: 6.00 Build 0)  -->
<svg version="1.1"
	 id="svg2" xmlns:cc="http://creativecommons.org/ns#" xmlns:dc="http://purl.org/dc/elements/1.1/" xmlns:rdf="http://www.w3.org/1999/02/22-rdf-syntax-ns#" xmlns:svg="http://www.w3.org/2000/svg"
	 xmlns="http://www.w3.org/2000/svg" xmlns:xlink="http://www.w3.org/1999/xlink" 
	 x="0px" y="0px" width="500px" height="500px" viewBox="0 0 500 500" enable-background="new 0 0 500 500" xml:space="preserve">
<style type="text/css">
	.st0{fill-rule:evenodd;clip-rule:evenodd;fill:#6082BB;}
	.st1{fill:#FFFFFF;}
</style>
<rect id="rect4138" class="st0" width="500" height="500"/>
<g>
	<path id="path3486" class="st1" d="M157,272c8.3,0,14.4-1.8,18.3-5.3c3.9-3.5,6.5-9.5,7.9-17.9c1.3-7.9,0.8-13.3-1.5-16.3
		c-2.4-3-7.4-4.6-15-4.6h-13.1l-7.3,44.1H157z M113.9,326.3c-0.6,0-1.3-0.3-1.6-0.9c-0.4-0.6-0.5-1.3-0.4-2l19.4-116.8
		c0.1-1.1,1-1.9,2-1.9h41.6c13.1,0,22.9,4.2,29,12.4c6.1,8.3,8.1,19.8,5.6,34.4c-1,5.9-2.6,11.4-5,16.4c-2.4,4.9-5.5,9.5-9.2,13.6
		c-4.5,5-9.6,8.6-15.1,10.7c-5.5,2.1-12.5,3.1-20.9,3.1h-16.9l-4.9,29.1c-0.1,1.1-1,1.9-2,1.9L113.9,326.3L113.9,326.3z"/>
	<path id="path3494" class="st1" d="M261,295.3c-0.6,0-1.1-0.3-1.5-0.9s-0.5-1.3-0.4-2l8.5-51.7c0.8-4.9,0.6-8.4-0.5-9.9
		c-0.8-0.9-2.9-2.4-9.1-2.4h-15.3l-10.6,65c-0.1,1.1-1,1.9-2,1.9h-21.3c-0.6,0-1.1-0.3-1.5-0.9c-0.4-0.6-0.5-1.3-0.4-2l19.1-116.8
		c0.1-1.1,1-1.9,2-1.9h21.3c0.6,0,1.1,0.3,1.5,0.9c0.4,0.6,0.5,1.3,0.4,2l-4.6,28.2h16.5c12.5,0,21,2.6,26,8
		c5,5.5,6.6,14.3,4.6,26.2l-8.9,54.3c-0.1,1.1-1,1.9-2,1.9L261,295.3L261,295.3z"/>
	<path id="path3502" class="st1" d="M332.5,272c8.5,0,15-1.8,19-5.3c4-3.5,6.8-9.5,8.3-17.9c1.4-7.9,0.9-13.3-1.5-16.3
		c-2.4-3-7.6-4.6-15.5-4.6h-13.6l-7.6,44.1H332.5z M287.8,326.3c-0.6,0-1.3-0.3-1.6-0.9c-0.4-0.6-0.6-1.3-0.5-2l20.1-116.8
		c0.3-1.1,1.1-1.9,2.1-1.9h43.3c13.6,0,23.8,4.2,30.1,12.4c6.4,8.3,8.4,19.8,5.9,34.4c-1,5.9-2.8,11.4-5.3,16.4
		c-2.5,4.9-5.6,9.5-9.6,13.6c-4.7,5-10,8.6-15.8,10.7c-5.6,2.1-13,3.1-21.6,3.1h-17.5l-5,29.1c-0.3,1.1-1.1,1.9-2.1,1.9L287.8,326.3
		L287.8,326.3z"/>
</g>
</svg>
