<?xml version="1.0" encoding="utf-8"?>
<!-- Generator: Adobe Illustrator 24.2.3, SVG Export Plug-In . SVG Version: 6.00 Build 0)  -->
<svg version="1.1" id="layer" xmlns="http://www.w3.org/2000/svg" xmlns:xlink="http://www.w3.org/1999/xlink" x="0px" y="0px"
	 viewBox="0 0 512 512" xml:space="preserve">
<style type="text/css">
	.st0{fill:#75AADB;}
	.st1{fill:#4D4D4D;}
	.st2{fill:#FFFFFF;}
</style>
<g id="Blue_Gradient_Letters">
	<g>
		
			<ellipse transform="matrix(0.7071 -0.7071 0.7071 0.7071 -148.823 152.7095)" class="st0" cx="109.9" cy="256" rx="78.9" ry="78.9"/>
		<g>
			<path class="st1" d="M205.6,279.4c4.1,2.6,10,4.6,16.3,4.6c9.4,0,14.8-5,14.8-12.1c0-6.5-3.8-10.4-13.3-14
				c-11.5-4.2-18.7-10.3-18.7-20.2c0-11,9.2-19.2,22.9-19.2c7.1,0,12.4,1.7,15.5,3.4l-2.6,7.5c-2.3-1.3-6.9-3.4-13.3-3.4
				c-9.7,0-13.3,5.8-13.3,10.6c0,6.6,4.3,9.8,14.1,13.7c12,4.6,17.9,10.4,17.9,20.8c0,10.9-8,20.5-24.7,20.5
				c-6.8,0-14.3-2.1-18.1-4.6L205.6,279.4z"/>
			<path class="st1" d="M269.1,227.6v12.2h13.2v7h-13.2v27.4c0,6.3,1.8,9.8,6.9,9.8c2.6,0,4-0.2,5.3-0.6l0.4,7.1
				c-1.8,0.6-4.6,1.3-8.2,1.3c-4.3,0-7.8-1.5-10-3.9c-2.5-2.9-3.6-7.4-3.6-13.4v-27.7h-7.9v-7.1h7.9v-9.4L269.1,227.6z"/>
			<path class="st1" d="M335.2,276.6c0,5.3,0.1,10,0.4,13.9h-8.2l-0.5-8.3h-0.2c-2.3,4.1-7.8,9.5-16.8,9.5c-8,0-17.5-4.5-17.5-22.3
				v-29.7h9.2v28c0,9.7,3,16.3,11.3,16.3c6.2,0,10.5-4.3,12.2-8.5c0.5-1.3,0.8-2.9,0.8-4.7v-31.1h9.2L335.2,276.6L335.2,276.6z"/>
			<path class="st1" d="M394.3,216v61.4c0,4.5,0.2,9.7,0.4,13.1h-8.2l-0.4-8.8h-0.3c-2.7,5.6-8.9,10-17.1,10
				c-12.3,0-21.8-10.4-21.8-25.8c-0.1-16.9,10.5-27.2,22.8-27.2c7.9,0,13,3.7,15.3,7.7h0.2v-30.3L394.3,216L394.3,216z M385.1,260.4
				c0-1.1-0.1-2.7-0.4-3.9c-1.3-5.8-6.4-10.6-13.3-10.6c-9.5,0-15.2,8.4-15.2,19.5c0,10.3,5.2,18.8,15,18.8c6.2,0,11.9-4.2,13.5-11
				c0.3-1.3,0.4-2.5,0.4-4L385.1,260.4L385.1,260.4z"/>
			<path class="st1" d="M420,225.5c0,3.2-2.3,5.6-5.8,5.6c-3.4,0-5.6-2.6-5.6-5.6c0-3.2,2.3-5.8,5.8-5.8
				C417.7,219.7,420,222.3,420,225.5z M409.7,290.6v-50.8h9.2v50.8H409.7z"/>
			<path class="st1" d="M480.2,264.7c0,18.8-13.1,27-25.3,27c-13.6,0-24.4-10.1-24.4-26.2c0-16.9,11.3-26.8,25.2-26.8
				C470.4,238.8,480.2,249.3,480.2,264.7z M440,265.3c0,11.1,6.3,19.5,15.3,19.5c8.8,0,15.4-8.3,15.4-19.7c0-8.6-4.3-19.4-15.2-19.4
				C444.7,245.7,440,255.7,440,265.3z"/>
		</g>
		<g>
			<path class="st2" d="M136.9,281.2h8.5v6.7h-13l-21.7-32.5H99.2v25.8h11.3v6.7H82v-6.7h9.8V224l-9.8-1.2v-6.3
				c3.7,0.8,6.9,1.4,10.9,1.4c6.1,0,12.2-1.4,18.3-1.4c11.8,0,22.7,5.3,22.7,18.4c0,10.1-6.1,16.5-15.4,19.3L136.9,281.2z M99.2,249
				l6.2,0.2c15.1,0.2,20.9-5.6,20.9-13.3c0-9.1-6.5-12.6-14.8-12.6c-3.9,0-8,0.4-12.2,0.8L99.2,249L99.2,249z"/>
		</g>
		<g>
			<path class="st1" d="M475,219.7c-3.3,0-5.9,2.7-5.9,5.9s2.7,5.9,5.9,5.9c3.3,0,5.9-2.7,5.9-5.9S478.3,219.7,475,219.7z
				 M480,225.7c0,2.8-2.3,4.9-4.9,4.9c-2.8,0-4.9-2.3-4.9-4.9c0-2.8,2.3-5,4.9-5C477.8,220.7,480,222.9,480,225.7z"/>
			<path class="st1" d="M477.1,228.1l-1.5-2.2c0.8-0.3,1.3-0.9,1.3-1.8c0-1.3-1.1-1.7-2.2-1.7c-0.3,0-0.5,0-0.8,0.1
				c-0.2,0-0.5,0.1-0.8,0.1c-0.4,0-0.6-0.1-1-0.2H472v0.8l0.9,0.1v4.8H472v0.9h2.8v-0.9h-1v-2h0.8l1.9,2.8l0.1,0.1h1.4V228
				L477.1,228.1L477.1,228.1z M476,224.2c0,0.3-0.2,0.5-0.4,0.8c-0.3,0.2-0.8,0.3-1.3,0.3h-0.4v-1.9c0.4,0,0.7-0.1,1-0.1
				C475.3,223.2,476,223.5,476,224.2z"/>
		</g>
	</g>
</g>
<g id="R_Ball">
</g>
</svg>
