<?xml version="1.0" encoding="utf-8"?>
<!-- Generator: Adobe Illustrator 24.2.3, SVG Export Plug-In . SVG Version: 6.00 Build 0)  -->
<svg version="1.1" id="Layer_1" xmlns="http://www.w3.org/2000/svg" xmlns:xlink="http://www.w3.org/1999/xlink" x="0px" y="0px"
	 viewBox="0 0 500 500" width="500px" height="500px" style="enable-background:new 0 0 500 500;" xml:space="preserve">
<style type="text/css">
	.st0{fill:#CD6799;}
</style>
<path class="st0" d="M408.1,274.6c-15.3,0.1-28.6,3.8-39.7,9.2c-4.1-8.1-8.2-15.3-8.9-20.6c-0.8-6.2-1.8-9.9-0.8-17.3
	c1-7.4,5.3-17.8,5.2-18.6c-0.1-0.8-1-4.6-9.8-4.6c-8.8-0.1-16.4,1.7-17.3,4c-0.9,2.3-2.6,7.6-3.7,13c-1.5,8-17.6,36.6-26.8,51.5
	c-3-5.8-5.5-11-6.1-15c-0.8-6.2-1.8-9.9-0.8-17.3c1-7.4,5.3-17.8,5.2-18.6s-1-4.6-9.8-4.6s-16.4,1.7-17.3,4s-1.8,7.8-3.7,13
	c-1.8,5.3-23.2,53-28.8,65.3c-2.9,6.3-5.4,11.4-7.1,14.8l0,0c0,0-0.1,0.2-0.3,0.6c-1.5,3-2.4,4.6-2.4,4.6s0,0,0,0.1
	c-1.2,2.2-2.5,4.2-3.1,4.2c-0.5,0-1.4-5.8,0.2-13.6c3.2-16.6,10.8-42.3,10.7-43.2c0-0.5,1.4-5-5-7.3c-6.2-2.3-8.5,1.5-9,1.5
	s-1,1.4-1,1.4s7-29-13.3-29c-12.6,0-30.1,13.8-38.7,26.3c-5.4,3-17,9.3-29.4,16.1c-4.7,2.6-9.6,5.3-14.2,7.8c-0.3-0.3-0.6-0.7-1-1
	c-24.5-26.2-69.8-44.6-67.8-79.8c0.7-12.8,5.1-46.4,87-87.2c67.4-33.2,121-24,130.2-3.6c13.3,29.1-28.7,83.2-98.3,91
	c-26.6,3-40.5-7.3-44-11.1c-3.7-4-4.2-4.2-5.6-3.4c-2.2,1.2-0.8,4.8,0,6.9c2.1,5.4,10.6,15,25.1,19.8c12.8,4.2,43.9,6.5,81.6-8.1
	c42.2-16.3,75.1-61.7,65.4-99.7c-9.7-38.6-73.7-51.3-134.2-29.8c-36,12.8-75,33-103.1,59.2c-33.4,31.2-38.6,58.3-36.5,69.7
	c7.8,40.3,63.4,66.6,85.6,86c-1.1,0.6-2.2,1.2-3,1.7c-11.1,5.5-53.5,27.7-64.1,51.1c-12,26.6,1.9,45.6,11.1,48.2
	c28.6,7.9,57.9-6.3,73.7-29.8c15.8-23.5,13.8-54.1,6.6-68.1c-0.1-0.2-0.2-0.3-0.3-0.5c2.9-1.7,5.8-3.4,8.7-5.1
	c5.7-3.4,11.3-6.5,16.1-9c-2.7,7.4-4.7,16.3-5.7,29.1c-1.2,15,5,34.6,13,42.2c3.6,3.4,7.8,3.4,10.6,3.4c9.4,0,13.7-7.8,18.4-17.1
	c5.8-11.4,11-24.6,11-24.6s-6.5,35.7,11.1,35.7c6.4,0,12.9-8.3,15.8-12.6c0,0.1,0,0.1,0,0.1s0.2-0.2,0.5-0.8c0.6-1,1-1.7,1-1.7
	s0-0.1,0-0.2c2.6-4.5,8.3-14.6,16.9-31.5c11-21.8,21.7-49,21.7-49s1,6.6,4.2,17.7c1.9,6.5,5.9,13.6,9.1,20.5
	c-2.6,3.6-4.2,5.6-4.2,5.6s0,0,0.1,0.1c-2.1,2.7-4.3,5.7-6.8,8.6c-8.7,10.4-19.1,22.3-20.6,25.8c-1.7,4.1-1.3,7,1.9,9.4
	c2.3,1.8,6.5,2,10.7,1.8c7.8-0.6,13.4-2.5,16.1-3.7c4.2-1.5,9.2-3.8,13.8-7.3c8.6-6.3,13.8-15.4,13.3-27.3c-0.2-6.6-2.4-13.1-5-19.3
	c0.8-1.1,1.5-2.2,2.3-3.4c13.5-19.8,24-41.4,24-41.4s1,6.6,4.2,17.7c1.6,5.6,4.9,11.7,7.8,17.6c-12.7,10.3-20.6,22.3-23.4,30.2
	c-5,14.6-1.1,21.1,6.3,22.6c3.4,0.7,8.2-0.9,11.7-2.4c4.5-1.4,9.8-3.9,14.8-7.6c8.6-6.3,16.8-15.1,16.3-27c-0.2-5.4-1.7-10.8-3.7-16
	c10.8-4.5,24.7-7,42.5-4.9c38.1,4.5,45.6,28.2,44.2,38.2c-1.4,10-9.4,15.4-12.1,17.1c-2.6,1.7-3.5,2.2-3.3,3.4
	c0.3,1.8,1.6,1.7,3.8,1.4c3.1-0.6,20-8.1,20.7-26.5C470.1,300,447.7,274.3,408.1,274.6z M114.4,373.6c-12.6,13.8-30.2,19-37.8,14.6
	c-8.2-4.7-5-25,10.6-39.6c9.4-8.9,21.6-17.1,29.7-22.2c1.8-1.1,4.6-2.7,7.8-4.7c0.6-0.3,0.9-0.5,0.9-0.5l0,0
	c0.6-0.4,1.3-0.8,1.9-1.2C133.1,340.8,127.7,359.1,114.4,373.6z M206.4,311.1c-4.4,10.7-13.6,38.2-19.2,36.6
	c-4.8-1.3-7.8-22.1-1-42.6c3.4-10.3,10.7-22.6,15-27.4c6.9-7.7,14.5-10.2,16.3-7.1C219.8,274.6,209.1,304.3,206.4,311.1z
	 M282.3,347.4c-1.8,1-3.6,1.6-4.4,1.1c-0.6-0.3,0.8-1.6,0.8-1.6s9.5-10.2,13.3-14.9c2.2-2.7,4.7-5.9,7.4-9.5c0,0.3,0,0.7,0,1
	C299.4,335.8,287.6,344,282.3,347.4z M340.9,334c-1.4-1-1.1-4.2,3.4-14.2c1.8-3.9,5.9-10.5,13-16.8c0.8,2.6,1.4,5,1.3,7.4
	C358.5,325.9,347.5,331.6,340.9,334z"/>
</svg>
