<?xml version="1.0" encoding="utf-8"?>
  <svg version="1.1" id="name-logo-svg" xmlns:svg="http://www.w3.org/2000/svg" xmlns="http://www.w3.org/2000/svg" xmlns:xlink="http://www.w3.org/1999/xlink" x="0px" y="0px" viewBox="0 0 1014 153.9" style="enable-background:new 0 0 1014 153.9;" xml:space="preserve">
    <style type="text/css">
      .fill-white {
        fill: white;
      }

      .fill-red {
        fill: #BC002D;
        stroke: #BC002D;
      }

      .lines {
        stroke-width: 0.75;
        stroke-miterlimit: 15;
      }

      .circle {
        fill-opacity: 0;
        stroke-width: 3;
        stroke-miterlimit: 10;
      }
    
       #name-group,.circle {
        -webkit-animation: slide 2s cubic-bezier(0.4, 0.0, 0.2, 1);
        animation: slide 2s cubic-bezier(0.4, 0.0, 0.2, 1);
      }

      #divider {
        -webkit-animation: slide 1s forwards;
        animation: slide 1s forwards;
      }
    @-webkit-keyframes slide {
      0% {transform: translate(30%);
        100% { transform: translate(0%); }
    }

    @keyframes slide {
      0% {transform: translate(30%);
        100% { transform: translate(0%); }
    }
    </style>
    <g id="logo-g" class="fill-red" transform="translate(-4.0712938,-42.168268)">
      <ellipse id="logo-ver1" class="lines" cx="56.9" cy="130" rx="1.2" ry="60" />
      <ellipse id="logo-ver" class="lines" cx="44.2" cy="130" rx="1.2" ry="60" />
      <circle id="logo-circle" class="circle" cx="65.4" cy="114.6" r="36.4">
        <animate attributeName="stroke" begin="0;graphics.click" dur="2.2s" values="white; #BC002D" calcMode="linear" />
      </circle>

      <ellipse id="logo-diag" transform="matrix(0.8781 -0.4785 0.4785 0.8781 -59.4713 40.5788)" class="st3" cx="49.9" cy="137" rx="1.2" ry="61.1" />
    </g>
    <g id="name-group" class="st4 fill-white">
      <path id="N" d="M183.3,37h2.8v73l-53-65.2V109h-2.8V35.9l53,65.1V37z" />
      <path id="U" d="M270.5,110.3h-1c-5.9,0-10.9-2-14.9-6.1c-4.1-4.1-6.1-9.2-6.1-15.5V37h3.2v51.6c0,5.4,1.8,10,5.3,13.5
    c3.5,3.6,7.9,5.4,13.1,5.4s9.5-1.8,13-5.3c3.5-3.6,5.2-8.1,5.2-13.6V37h3.2v51.6c0,6.3-2,11.5-6.1,15.6
    C281.2,108.2,276.3,110.3,270.5,110.3z" />
      <path id="R" d="M353.8,37h4.1c6.2,0,11.7,2.3,16.4,6.9c4.7,4.6,7.1,10,7.1,16.1c0,6.2-2.4,11.5-7.2,16.1
    c-4.8,4.5-10,6.8-15.5,6.8H358l24.8,26.1h-4.1l-21.8-22.8V109h-3.1V37z M356.9,80.1h1.7c5.2,0,9.8-2,13.7-6c4-4,6-8.7,6-14.1
    s-2-10.2-6.1-14.2s-8.8-6-14-6H357v40.3H356.9z" />
        <path id="divider" fill="#BC002D"  stroke="#BC002D" d="M440.9,148.6V37.1h3.2v111.5H440.9z" >
                  <animate attributeName="fill" begin="0;graphics.click" dur="2.2s" values="white;#BC002D; " calcMode="linear" />
      </path>
      <path id="Y" d="M526.2,109H523V80.2L501.2,37h3.5L525,76.8L544.8,37h2.9l-21.4,43.2L526.2,109L526.2,109z" />
      <path id="A" d="M624.8,35.2l36,73.7h-3.4l-13.6-27.5h-38.5L591.9,109h-3L624.8,35.2z M624.5,41.9l-18,36.9h36.1
    L624.5,41.9z" />
      <path id="N2" d="M771.9,37h2.8v73l-53-65.2V109h-2.8V35.9l53,65.1V37z" />
      <path id="A2" d="M868.7,35.2l36,73.7h-3.4l-13.6-27.5h-38.5L835.7,109h-3L868.7,35.2z M868.4,41.9l-18,36.9h36.1
    L868.4,41.9z" />
      <path id="R2" d="M962.7,37h4.1c6.2,0,11.7,2.3,16.4,6.9s7.1,10,7.1,16.1c0,6.2-2.4,11.5-7.2,16.1
    c-4.8,4.5-10,6.8-15.5,6.8H967l24.8,26.1h-4.1l-21.8-22.8V109h-3.1V37H962.7z M965.8,80.1h1.7c5.2,0,9.8-2,13.7-6c4-4,6-8.7,6-14.1
    s-2-10.2-6.1-14.2s-8.8-6-14-6h-1.2v40.3H965.8z" />
    </g>
</svg>
